<?xml version="1.0" standalone="no"?>
<!DOCTYPE svg PUBLIC "-//W3C//DTD SVG 20010904//EN"
 "http://www.w3.org/TR/2001/REC-SVG-20010904/DTD/svg10.dtd">
<svg version="1.0" xmlns="http://www.w3.org/2000/svg"
 width="150.000000pt" height="150.000000pt" viewBox="0 0 150.000000 150.000000"
 preserveAspectRatio="xMidYMid meet">

<!-- Fundo amarelo -->
<rect width="150" height="150" fill="#F4C430"/>

<g transform="translate(0.000000,150.000000) scale(0.100000,-0.100000)"
fill="#000000" stroke="none">
<path d="M214 954 c-46 -23 -54 -50 -54 -194 0 -140 7 -171 42 -194 31 -20
146 -30 242 -21 107 10 128 29 134 119 l4 67 -35 -21 c-19 -11 -53 -22 -76
-25 -31 -3 -53 -14 -82 -39 -62 -57 -140 -45 -159 23 -15 53 -13 58 30 105 33
35 40 50 40 83 0 26 9 53 25 77 l24 36 -52 0 c-29 0 -66 -7 -83 -16z"/>
<path d="M612 923 l3 -38 114 -3 c116 -3 141 -10 141 -42 0 -34 -33 -50 -104
-50 -119 0 -156 -38 -156 -160 l0 -70 34 0 34 0 4 71 c4 80 13 91 73 87 39 -3
41 -5 80 -80 l40 -78 54 0 c52 0 57 2 100 48 40 42 213 299 228 339 5 13 -2
14 -38 9 -24 -3 -46 -12 -50 -19 -44 -75 -199 -294 -216 -305 -21 -13 -23 -11
-52 40 l-30 53 23 20 c47 40 59 100 31 154 -24 48 -68 61 -200 61 l-116 0 3
-37z"/>
<path d="M1112 629 c-18 -7 -23 -15 -20 -36 3 -24 8 -28 38 -30 19 -1 26 1 15
4 -45 12 -56 53 -14 53 10 0 19 5 19 10 0 12 -7 12 -38 -1z"/>
<path d="M1260 630 c0 -5 12 -10 26 -10 14 0 23 -4 19 -10 -3 -5 -15 -10 -26
-10 -13 0 -19 -7 -19 -22 0 -21 0 -21 14 -2 14 18 15 18 21 2 4 -10 10 -18 15
-18 12 0 10 64 -3 72 -17 11 -47 10 -47 -2z"/>
<path d="M1191 599 c-11 -18 -18 -35 -15 -38 3 -3 9 1 14 9 5 8 16 24 24 35
15 19 15 19 16 -12 0 -18 5 -33 11 -33 6 0 9 14 7 32 -4 46 -32 49 -57 7z"/>
</g>
</svg>
